<?xml version="1.0" standalone="no"?>
<!DOCTYPE svg PUBLIC "-//W3C//DTD SVG 20010904//EN"
 "http://www.w3.org/TR/2001/REC-SVG-20010904/DTD/svg10.dtd">
<svg version="1.0" xmlns="http://www.w3.org/2000/svg"
 width="914.000000pt" height="1276.000000pt" viewBox="0 0 914.000000 1276.000000"
 preserveAspectRatio="xMidYMid meet">

<g transform="translate(0.000000,1276.000000) scale(0.100000,-0.100000)"
fill="#000000" stroke="none">
<path d="M1100 12745 c-7 -9 -10 -18 -6 -22 3 -3 6 -1 6 5 0 6 8 12 18 14 11
2 13 6 6 11 -7 4 -17 0 -24 -8z"/>
<path d="M1140 12750 c0 -5 5 -10 11 -10 5 0 7 5 4 10 -3 6 -8 10 -11 10 -2 0
-4 -4 -4 -10z"/>
<path d="M1233 12745 c-7 -8 -13 -21 -13 -30 0 -9 -6 -15 -12 -12 -7 2 -12 11
-10 21 2 9 -2 16 -8 16 -11 0 -13 -11 -4 -34 3 -9 15 -16 26 -16 15 0 19 -5
15 -20 -4 -14 2 -22 22 -29 17 -6 20 -10 9 -10 -20 -1 -26 -51 -7 -51 6 0 9
-6 6 -12 -3 -9 7 -13 33 -12 l37 2 -15 -44 c-8 -24 -18 -42 -22 -39 -4 3 -10
-9 -14 -25 -3 -18 -12 -30 -21 -30 -8 0 -15 -7 -15 -15 0 -8 -4 -15 -9 -15 -4
0 -7 -17 -6 -37 4 -54 3 -53 24 -53 26 0 36 -17 21 -35 -10 -12 -9 -15 3 -15
10 0 14 -6 11 -14 -3 -8 -1 -24 6 -35 7 -14 7 -21 0 -21 -5 0 -10 5 -10 10 0
6 -4 10 -10 10 -5 0 -10 -7 -10 -15 0 -8 7 -15 15 -15 8 0 15 -6 15 -14 0 -17
30 -30 31 -13 1 7 1 15 0 20 0 4 8 7 20 7 13 0 18 4 13 13 -5 8 -2 8 9 -2 9
-7 17 -21 17 -31 0 -12 8 -17 30 -17 35 0 41 23 8 30 -14 3 -9 5 15 6 30 1 37
-2 37 -18 0 -16 8 -20 43 -23 35 -2 43 -7 45 -25 3 -17 -2 -23 -16 -23 -15 0
-19 -5 -15 -18 5 -21 -21 -47 -37 -37 -6 4 -9 14 -6 22 9 23 -3 34 -24 21 -14
-9 -22 -9 -34 1 -14 12 -19 11 -36 -4 -10 -9 -16 -23 -13 -31 3 -8 0 -14 -6
-14 -6 0 -11 7 -11 15 0 16 -8 18 -86 15 -35 -1 -56 4 -67 14 -22 23 -40 20
-32 -4 7 -22 -5 -26 -23 -8 -13 13 -15 8 -12 -39 1 -20 -3 -33 -10 -33 -7 0
-10 6 -7 13 3 8 1 20 -4 28 -7 11 -10 9 -15 -8 -4 -13 -13 -23 -21 -23 -8 0
-17 -8 -19 -17 -4 -15 -15 -18 -62 -16 -31 1 -72 2 -89 2 -22 1 -33 6 -33 15
0 8 -8 15 -17 16 -10 0 -58 1 -107 3 -62 1 -91 6 -94 15 -3 10 -7 10 -18 1
-11 -9 -18 -8 -32 5 -10 9 -31 16 -45 16 -22 0 -27 5 -27 24 0 31 -28 42 -46
19 -8 -11 -13 -13 -14 -5 0 6 -9 12 -21 12 -13 0 -23 10 -30 30 -7 19 -18 30
-30 30 -10 0 -19 6 -19 13 0 7 -18 13 -48 15 -26 2 -52 9 -58 17 -8 10 -30 15
-69 15 -47 0 -56 3 -51 15 3 8 1 15 -4 15 -6 0 -10 -6 -10 -14 0 -27 12 -45
26 -39 9 3 14 -2 14 -15 0 -26 -43 -35 -64 -13 -15 14 -16 13 -16 -7 0 -17 6
-22 28 -23 18 -1 21 -3 9 -6 -11 -3 -16 -11 -13 -19 4 -9 -2 -14 -17 -15 -12
-1 -29 -2 -37 -3 -8 -2 -27 -3 -42 -4 l-28 -2 1 -2732 c1 -1599 5 -2718 10
-2698 5 19 7 44 4 55 -5 25 9 52 19 36 4 -6 1 -11 -6 -11 -7 0 -5 -5 6 -11 13
-8 15 -14 7 -18 -7 -4 -14 -27 -17 -50 -5 -39 -3 -41 18 -38 13 2 17 2 10 0
-10 -3 -13 -20 -11 -56 3 -74 0 -99 -11 -92 -5 3 -14 20 -19 38 -6 23 -9 -23
-10 -155 -1 -173 4 -210 24 -178 11 18 25 0 21 -26 -3 -16 0 -24 10 -24 9 0
14 -11 14 -30 0 -16 -5 -30 -11 -30 -5 0 -7 -5 -3 -11 3 -6 17 -9 30 -6 13 2
21 0 18 -4 -3 -5 15 -9 39 -9 39 0 45 3 58 32 8 17 22 33 32 34 9 1 15 -1 12
-6 -3 -4 2 -11 11 -14 10 -4 13 -2 9 7 -4 6 -1 5 7 -3 17 -20 70 -26 66 -8 -2
9 13 14 52 18 51 5 55 7 58 31 3 26 15 34 65 45 11 2 26 13 35 24 18 20 68 30
89 17 6 -4 28 4 48 17 34 23 34 25 13 29 -20 4 -20 4 5 6 18 1 27 6 27 19 1
16 1 16 11 0 9 -16 13 -17 39 -3 24 13 56 20 102 24 5 1 7 7 5 14 -1 6 6 11
16 9 9 -2 17 2 17 8 0 23 30 42 56 36 15 -4 23 -3 20 3 -3 5 -1 11 6 13 8 3
12 42 12 129 0 70 5 127 10 131 6 4 11 17 12 30 1 13 5 31 9 41 5 12 2 22 -11
32 -18 13 -18 14 -1 15 9 0 17 7 17 15 0 9 -6 12 -15 9 -9 -4 -15 0 -15 10 0
9 3 16 8 16 4 0 16 7 26 15 15 11 16 17 7 29 -9 11 -8 15 4 20 8 3 15 17 15
31 0 14 5 25 10 25 6 0 10 5 10 11 0 5 -3 8 -8 5 -7 -4 -35 12 -43 26 -2 4 4
13 14 20 10 8 18 18 17 23 -5 22 1 27 15 15 12 -10 15 -10 15 1 0 8 12 15 27
16 15 0 29 6 31 12 2 6 8 9 13 5 5 -3 9 2 9 10 0 9 5 16 10 16 6 0 10 9 10 21
0 11 5 17 10 14 12 -7 31 10 49 43 7 12 16 20 20 18 5 -3 15 12 23 33 11 27
23 40 38 43 13 1 28 12 34 22 15 27 58 65 74 66 7 0 11 4 8 8 -2 4 9 18 25 31
16 13 29 31 29 41 0 10 6 20 12 22 14 5 18 32 22 158 2 47 0 87 -4 90 -13 10
10 68 40 100 46 49 68 83 63 98 -3 7 4 23 14 35 11 12 23 30 26 40 4 9 18 22
32 29 17 8 25 18 22 28 -5 20 11 53 22 46 4 -3 7 8 6 24 -1 17 1 30 5 30 4 0
7 18 7 41 0 23 5 44 11 48 5 3 12 27 15 52 5 47 47 123 72 133 9 3 13 18 10
45 -3 29 1 44 16 56 10 10 17 21 14 25 -2 3 3 25 11 49 8 23 12 46 9 51 -2 4
2 13 10 20 8 7 15 20 15 29 0 10 9 27 20 39 11 12 20 26 20 32 0 5 4 10 10 10
5 0 6 9 1 22 -4 13 -5 36 0 53 4 16 10 66 13 110 3 44 10 81 15 83 6 2 11 10
11 19 0 8 7 21 15 29 8 9 15 26 15 40 0 17 7 25 28 30 34 9 71 35 72 52 0 6 5
12 11 12 6 0 24 14 41 30 16 17 34 30 39 30 6 0 27 16 47 36 20 20 71 51 112
70 96 44 151 73 170 90 9 7 39 21 68 30 29 9 52 20 52 24 0 4 36 17 79 30 51
14 90 32 111 51 17 16 40 34 51 40 15 7 18 16 13 32 -9 29 -9 30 -41 29 -15 0
-31 5 -35 12 -5 8 -8 7 -8 -2 0 -8 -7 -11 -18 -8 -10 4 -40 8 -68 11 -27 3
-69 8 -94 11 -31 4 -54 1 -75 -10 -18 -9 -31 -12 -33 -6 -2 6 -15 10 -28 10
-14 0 -27 7 -30 15 -4 8 -13 15 -21 15 -8 0 -28 11 -45 25 -35 30 -44 31 -57
8 -9 -16 -10 -16 -11 -1 0 11 -6 15 -20 11 -23 -6 -27 -23 -6 -23 10 0 13 -8
11 -21 -5 -25 -15 -38 -15 -21 0 19 -65 14 -93 -8 -26 -21 -38 -25 -35 -12 0
4 -2 15 -6 24 -13 30 -3 63 22 66 22 3 30 26 12 37 -18 11 -10 53 13 72 26 20
41 70 23 76 -8 3 -7 12 2 31 7 15 9 32 6 38 -5 7 -2 8 6 3 10 -6 12 -4 7 8 -5
14 0 17 23 17 17 0 30 -4 30 -10 0 -11 30 -14 31 -2 0 4 3 18 5 32 2 14 5 75
5 135 1 116 11 145 50 145 19 0 75 27 96 47 7 6 13 21 13 33 0 14 5 20 17 18
11 -2 18 3 18 14 0 9 14 27 30 39 17 13 32 26 35 29 13 14 86 52 103 54 11 1
26 29 21 38 -3 4 0 8 5 8 6 0 11 -4 11 -10 0 -5 5 -10 11 -10 5 0 8 4 5 9 -4
5 3 7 14 4 11 -3 20 0 20 6 0 5 7 8 15 5 9 -4 15 -1 15 7 0 8 13 20 29 27 17
7 31 21 33 30 3 13 15 17 56 18 51 1 80 12 55 21 -7 3 -13 11 -13 19 0 19 54
18 70 -1 7 -8 18 -15 25 -15 11 0 24 -25 29 -53 0 -5 15 -15 31 -23 17 -8 22
-12 13 -9 -13 3 -18 -1 -18 -15 0 -11 5 -20 10 -20 6 0 10 5 10 10 0 6 5 10
10 10 15 0 12 -27 -4 -33 -9 -4 -12 -19 -10 -48 2 -33 -2 -48 -17 -62 -21 -20
-24 -33 -8 -42 7 -5 3 -12 -9 -21 -23 -16 -34 -51 -18 -58 7 -3 6 -8 -4 -15
-12 -9 -12 -11 -1 -11 8 0 19 -7 26 -17 15 -21 -4 -64 -40 -87 -28 -18 -39
-21 -30 -6 3 6 2 10 -4 10 -5 0 -14 -6 -18 -12 -14 -22 -50 -37 -105 -43 -29
-4 -61 -14 -70 -22 -19 -17 -24 -53 -8 -53 6 0 9 -3 8 -7 -1 -5 5 -21 12 -38
7 -16 13 -33 12 -37 -1 -4 12 -20 28 -36 28 -28 32 -29 132 -30 110 -2 226 10
323 33 33 8 81 16 106 19 26 3 64 9 85 14 71 18 307 36 474 36 168 1 358 -24
470 -59 25 -8 77 -21 115 -29 39 -8 97 -22 130 -31 33 -10 90 -23 128 -30 37
-7 75 -19 85 -27 25 -21 87 -39 222 -62 38 -7 70 -19 70 -26 0 -5 8 -11 18
-14 9 -3 31 -19 49 -36 18 -16 36 -30 41 -30 18 0 100 -40 112 -55 7 -8 17
-15 22 -15 12 0 132 -81 136 -92 2 -4 8 -8 13 -8 14 0 48 -33 43 -42 -3 -4 3
-8 12 -8 10 0 15 -3 11 -6 -3 -4 1 -23 9 -43 30 -69 31 -302 2 -273 -16 16
-61 -35 -93 -105 -12 -25 -12 -38 -3 -65 6 -18 17 -39 25 -46 7 -7 17 -31 23
-53 6 -22 22 -49 35 -61 13 -11 27 -35 30 -52 4 -17 17 -62 30 -101 13 -38 26
-83 30 -99 3 -15 13 -35 20 -43 8 -8 15 -23 15 -33 0 -10 5 -22 10 -25 6 -3
10 -13 10 -21 0 -8 9 -24 19 -36 11 -11 17 -26 14 -34 -3 -8 0 -14 6 -14 6 0
11 -9 11 -19 0 -11 5 -23 10 -26 6 -4 10 -14 8 -23 -1 -10 3 -27 10 -39 7 -12
11 -26 10 -30 -1 -4 2 -30 7 -56 6 -42 17 -59 76 -120 38 -40 69 -76 69 -81 0
-10 90 -111 99 -111 16 -1 89 -58 116 -91 17 -20 37 -44 45 -53 9 -9 27 -33
40 -53 14 -21 29 -38 34 -38 11 0 56 -48 56 -60 0 -5 9 -11 20 -15 12 -4 24
-21 30 -46 6 -21 16 -39 23 -39 7 0 20 -9 30 -20 10 -12 22 -18 27 -15 6 3 10
-1 10 -9 0 -9 7 -16 15 -16 9 0 20 -11 25 -24 5 -14 21 -33 36 -42 43 -29 85
-75 78 -86 -4 -6 -3 -8 3 -5 10 7 18 -5 52 -85 12 -25 32 -55 46 -66 13 -11
21 -22 18 -26 -3 -3 -2 -6 3 -6 6 0 16 -17 23 -37 7 -21 31 -55 52 -76 22 -21
39 -42 39 -47 0 -6 7 -10 16 -10 9 0 25 -11 36 -25 11 -14 24 -23 29 -20 5 4
9 2 9 -3 0 -5 9 -12 21 -15 11 -3 23 -15 26 -26 3 -12 9 -21 14 -21 5 0 9 -7
9 -14 0 -24 62 -63 112 -70 25 -4 64 -19 85 -34 21 -15 68 -42 105 -60 36 -18
72 -39 78 -47 6 -7 19 -11 29 -8 9 2 23 -3 30 -11 8 -9 22 -16 32 -16 12 0 19
-7 19 -19 0 -13 15 -26 48 -41 26 -12 55 -26 64 -31 10 -5 27 -9 38 -9 11 0
20 -4 20 -9 0 -5 12 -8 27 -8 14 0 32 -8 39 -18 7 -9 19 -18 27 -19 8 -1 21
-7 28 -13 8 -6 25 -13 39 -15 14 -2 24 -8 23 -14 -1 -6 18 -14 43 -18 42 -5
129 -52 167 -90 9 -10 17 -15 17 -11 0 3 10 -1 22 -9 13 -9 43 -16 70 -16 27
0 48 -4 48 -8 0 -5 -13 -7 -30 -4 -16 2 -30 0 -30 -5 0 -15 47 -36 64 -30 9 4
15 1 13 -5 -1 -7 16 -12 48 -13 28 -1 66 -9 85 -18 36 -17 91 -32 149 -42 19
-3 42 -10 52 -16 11 -5 19 -7 19 -3 0 3 6 1 14 -5 8 -6 18 -11 22 -9 5 1 19
-3 31 -10 13 -7 38 -12 55 -12 18 0 44 -1 58 -4 14 -3 46 -8 73 -12 l47 -7 0
57 0 56 -70 0 c-56 0 -70 3 -70 15 0 8 -8 15 -17 15 -34 0 -94 21 -88 31 4 5
1 9 -4 9 -6 0 -10 6 -9 13 2 7 -6 11 -19 9 -44 -6 -32 33 13 41 36 5 57 24 57
50 0 52 71 54 161 4 l46 -26 0 3051 c0 3020 0 3050 -20 3045 -10 -3 -20 -1
-22 4 -2 4 -19 14 -38 22 -26 11 -41 12 -60 4 -14 -6 -36 -12 -50 -13 -92 -11
-120 -12 -120 -3 0 6 -4 7 -10 4 -5 -3 -10 -2 -10 4 0 5 -12 5 -30 -2 -25 -10
-48 -7 -138 15 -74 19 -136 28 -202 29 -113 1 -126 3 -162 17 -20 8 -36 8 -55
1 -16 -6 -29 -10 -31 -10 -1 1 -16 -6 -32 -14 -17 -9 -30 -13 -30 -10 0 3 -10
0 -22 -7 -13 -6 -29 -13 -37 -14 -8 -2 -17 -6 -20 -11 -5 -7 -48 -8 -171 -3
-25 2 -46 -2 -48 -9 -2 -6 -8 -8 -14 -5 -15 10 -97 -26 -109 -48 -6 -11 -17
-17 -25 -14 -8 3 -23 -3 -34 -14 -11 -11 -28 -20 -37 -20 -13 0 -14 -3 -5 -12
17 -17 15 -38 -4 -38 -8 0 -22 -6 -29 -12 -38 -34 -43 -36 -53 -26 -21 21 -80
20 -102 -2 -16 -16 -33 -20 -86 -20 -57 0 -67 3 -71 20 -3 11 -10 17 -15 14
-5 -3 -21 -1 -36 4 -15 6 -36 14 -47 18 -11 4 -24 6 -30 5 -5 -2 -41 -4 -80
-6 -111 -5 -149 -16 -153 -44 -2 -13 2 -28 10 -32 9 -6 7 -9 -8 -9 -24 0 -64
-31 -64 -50 0 -7 -7 -10 -14 -7 -10 4 -13 1 -10 -8 4 -10 0 -12 -15 -8 -12 3
-27 0 -34 -6 -8 -6 -17 -7 -21 -3 -4 4 -6 0 -4 -8 3 -15 -2 -17 -60 -19 -29
-1 -32 -3 -26 -26 5 -19 2 -25 -10 -25 -9 0 -16 -7 -16 -15 0 -8 -7 -15 -15
-15 -10 0 -15 -10 -15 -30 0 -20 -5 -30 -15 -30 -8 0 -15 -7 -15 -15 0 -8 -6
-15 -14 -15 -8 0 -16 -5 -18 -11 -2 -5 -12 -11 -23 -13 -11 -1 -24 -12 -30
-24 -5 -12 -21 -23 -35 -25 -25 -4 -25 -4 3 -6 15 0 27 -5 27 -10 0 -6 -18 -9
-40 -8 -33 2 -40 -1 -40 -15 0 -21 -16 -24 -23 -5 -3 8 -9 7 -18 -5 -10 -12
-30 -19 -66 -20 -29 -1 -53 -6 -53 -11 0 -5 -7 -6 -16 -3 -9 3 -28 -3 -44 -14
-16 -11 -35 -17 -44 -14 -9 3 -16 2 -16 -4 0 -11 -32 -23 -75 -27 -16 -2 -31
-8 -33 -13 -2 -6 -10 -8 -18 -5 -19 7 -214 -18 -214 -28 0 -5 -7 -6 -16 -2 -9
3 -20 0 -26 -8 -7 -11 -11 -11 -15 -1 -8 20 -20 14 -27 -13 -4 -14 -11 -23
-16 -20 -5 3 -11 1 -15 -5 -9 -15 -25 -2 -25 21 0 12 -4 17 -11 13 -6 -3 -9
-14 -6 -24 8 -31 -52 -66 -68 -40 -3 6 -1 10 5 10 6 0 8 5 5 10 -10 17 -21 11
-22 -11 -3 -32 -23 -49 -23 -20 0 16 -4 21 -14 18 -8 -3 -17 -1 -20 6 -3 8 -5
8 -5 -1 -1 -7 -7 -20 -15 -28 -13 -12 -15 -11 -21 6 -7 23 -21 26 -29 8 -4 -9
-5 -8 -4 2 1 8 -3 24 -7 34 -6 13 -4 21 3 24 15 5 16 42 2 42 -5 0 -10 7 -10
15 0 23 -17 18 -25 -7 -7 -22 -8 -22 -15 7 -8 31 -10 28 -14 -18 -1 -18 2 -26
11 -23 25 10 21 -10 -5 -28 -22 -14 -27 -26 -27 -56 0 -21 -6 -48 -13 -61 -6
-13 -16 -42 -21 -64 -9 -39 -9 -39 -10 -7 -1 17 -5 32 -11 32 -6 0 -10 -51
-10 -134 0 -79 -4 -137 -10 -141 -5 -3 -10 -20 -10 -36 0 -19 4 -28 11 -23 8
4 8 1 1 -12 -5 -11 -7 -64 -3 -127 3 -60 3 -111 0 -113 -3 -2 -6 -32 -6 -67
-1 -55 -16 -154 -30 -197 -3 -8 -5 -34 -5 -57 0 -24 -4 -43 -9 -43 -5 0 -9 -9
-9 -20 0 -11 -5 -29 -12 -39 -9 -15 -8 -24 7 -48 25 -36 27 -53 13 -80 -8 -16
-8 -26 0 -35 17 -21 19 -72 3 -97 -7 -11 -13 -10 -33 3 -17 11 -51 17 -111 18
-49 1 -87 6 -87 12 0 5 -3 6 -6 3 -9 -8 -43 30 -55 61 -5 12 -15 22 -23 22 -9
0 -20 9 -26 20 -6 10 -25 26 -43 35 -24 11 -33 22 -33 38 1 14 -6 23 -19 25
-38 8 -105 42 -140 73 -25 23 -35 27 -35 15 0 -10 -6 -13 -15 -10 -8 4 -15 15
-15 25 0 10 -5 19 -11 19 -7 0 -20 9 -29 20 -25 28 -107 69 -155 77 -22 3 -45
12 -50 20 -6 8 -29 15 -53 16 -23 0 -43 5 -43 9 -1 4 -2 14 -3 21 -1 8 -28 13
-91 15 -49 2 -97 6 -105 9 -8 3 -22 7 -30 9 -8 2 -19 10 -26 18 -8 12 -13 13
-22 4 -9 -9 -12 -9 -12 0 0 7 -11 12 -25 12 -18 0 -25 5 -25 20 0 17 -5 19
-32 13 -18 -3 -35 -9 -38 -12 -3 -3 -16 -7 -30 -8 -14 -1 -18 0 -7 3 9 3 17
10 17 15 0 6 -33 9 -80 7 -54 -2 -83 1 -88 9 -4 7 -41 14 -84 17 -60 4 -79 2
-88 -9 -7 -8 -21 -15 -31 -15 -22 0 -23 -4 -9 -30 8 -16 7 -18 -4 -14 -8 3
-21 22 -28 42 -8 26 -13 32 -16 19 -5 -24 -26 -16 -30 12 -3 18 -9 22 -28 18
-25 -4 -35 17 -11 26 6 3 -3 6 -20 6 -43 1 -47 31 -4 31 30 0 28 -6 48 116 3
20 0 34 -11 44 -15 12 -15 15 5 36 18 20 20 27 11 53 -6 17 -7 31 -3 31 9 0
-11 118 -24 153 -5 11 -1 25 9 36 14 16 15 21 3 32 -7 8 -12 19 -10 26 2 6 0
14 -6 17 -6 4 -8 13 -5 20 3 7 -2 16 -10 19 -9 4 -16 15 -16 26 0 11 -9 22
-20 26 -11 3 -20 11 -20 16 0 17 -3 24 -32 63 -15 21 -28 46 -28 55 0 22 -51
77 -79 86 -19 6 -21 11 -15 54 5 36 2 51 -10 64 -9 9 -12 18 -7 22 5 3 -5 22
-23 41 -32 35 -37 37 -112 41 -44 2 -85 6 -91 8 -7 2 -13 0 -13 -6 0 -6 -6 -7
-16 -1 -9 5 -35 5 -62 0 -26 -5 -55 -10 -64 -11 -10 -1 -18 -5 -18 -10 0 -4
-4 -6 -8 -3 -4 2 -14 1 -22 -4 -9 -6 -18 -3 -27 8 -7 9 -13 12 -13 6 0 -6 -7
-11 -15 -11 -8 0 -12 4 -9 9 3 4 -7 8 -21 8 -16 0 -24 4 -19 11 5 8 1 8 -14 0
-34 -18 -41 -13 -53 32 -6 26 -27 60 -54 89 -24 26 -45 51 -47 55 -1 4 -17 20
-35 34 -18 15 -29 30 -25 34 4 5 2 5 -4 2 -7 -4 -17 0 -24 8 -6 7 -18 11 -26
8 -8 -3 -14 1 -14 9 0 11 -9 13 -31 10 -29 -4 -31 -3 -24 19 4 13 13 27 19 31
6 4 -7 15 -31 25 -28 12 -43 24 -43 36 0 25 -40 77 -67 88 -16 6 -23 17 -23
34 0 15 -6 25 -14 25 -17 0 -76 56 -68 65 3 3 -2 5 -10 5 -9 0 -25 12 -36 27
-10 14 -28 27 -38 28 -10 1 -30 7 -44 12 -13 6 -62 9 -108 7 -46 -2 -95 1
-109 7 -20 8 -30 5 -55 -16 -40 -34 -101 -32 -106 3 -4 23 -18 30 -24 10 -7
-19 -28 1 -28 26 0 13 -7 29 -15 36 -13 10 -15 9 -15 -8 0 -33 -15 -34 -46 -2
-32 32 -52 37 -71 15z m-978 -565 c3 -5 1 -10 -4 -10 -6 0 -11 5 -11 10 0 6 2
10 4 10 3 0 8 -4 11 -10z m205 -124 c0 -3 -4 -8 -10 -11 -5 -3 -10 -1 -10 4 0
6 5 11 10 11 6 0 10 -2 10 -4z m760 -26 c0 -5 -5 -10 -11 -10 -5 0 -7 5 -4 10
3 6 8 10 11 10 2 0 4 -4 4 -10z m40 0 c0 -5 -4 -10 -10 -10 -5 0 -10 5 -10 10
0 6 5 10 10 10 6 0 10 -4 10 -10z m40 0 c0 -5 -4 -10 -10 -10 -5 0 -10 5 -10
10 0 6 5 10 10 10 6 0 10 -4 10 -10z m120 0 c0 -5 -4 -10 -10 -10 -5 0 -10 5
-10 10 0 6 5 10 10 10 6 0 10 -4 10 -10z m-395 -90 c-3 -5 -14 -10 -23 -9 -14
0 -13 2 3 9 27 11 27 11 20 0z m2675 -1170 c0 -5 -6 -9 -12 -7 -7 1 -12 -4
-10 -11 1 -8 -2 -11 -7 -7 -14 8 -2 35 15 35 8 0 14 -4 14 -10z m160 0 c0 -5
-4 -10 -10 -10 -5 0 -10 5 -10 10 0 6 5 10 10 10 6 0 10 -4 10 -10z m-513 -46
c-3 -3 -12 -4 -19 -1 -8 3 -5 6 6 6 11 1 17 -2 13 -5z m-3226 -3864 c17 0 19
-4 13 -22 -4 -13 -7 -35 -6 -50 3 -33 -17 -48 -25 -19 -3 12 -12 21 -20 21 -8
0 -11 -5 -7 -12 5 -7 3 -8 -6 -3 -10 6 -10 10 2 19 8 6 18 23 22 39 6 24 4 27
-21 27 -26 0 -26 1 -7 14 16 13 20 13 27 0 4 -8 17 -14 28 -14z m-81 -40 c0
-11 -6 -20 -14 -20 -9 0 -12 7 -9 20 3 11 9 20 14 20 5 0 9 -9 9 -20z m8783
-587 c-3 -7 -9 -13 -13 -13 -5 0 -11 6 -14 13 -5 10 -7 10 -12 0 -7 -15 -24
-17 -24 -3 0 5 11 12 25 16 14 3 25 14 26 23 0 12 2 11 8 -4 5 -11 6 -26 4
-32z m154 -79 c-3 -3 -12 -4 -19 -1 -8 3 -5 6 6 6 11 1 17 -2 13 -5z m-8817
-89 c0 -8 -2 -15 -4 -15 -2 0 -6 7 -10 15 -3 8 -1 15 4 15 6 0 10 -7 10 -15z
m-40 -5 c0 -5 -4 -10 -10 -10 -5 0 -10 5 -10 10 0 6 5 10 10 10 6 0 10 -4 10
-10z"/>
<path d="M70 12170 c0 -5 5 -10 11 -10 5 0 7 5 4 10 -3 6 -8 10 -11 10 -2 0
-4 -4 -4 -10z"/>
<path d="M0 12129 c0 -5 5 -7 10 -4 5 3 10 8 10 11 0 2 -4 4 -10 4 -5 0 -10
-5 -10 -11z"/>
<path d="M5505 11610 c-3 -5 -1 -10 4 -10 6 0 11 5 11 10 0 6 -2 10 -4 10 -3
0 -8 -4 -11 -10z"/>
<path d="M2325 9780 c-21 -23 -9 -26 18 -6 10 8 14 17 9 20 -5 3 -17 -3 -27
-14z"/>
<path d="M1 6044 c0 -11 3 -14 6 -6 3 7 2 16 -1 19 -3 4 -6 -2 -5 -13z"/>
<path d="M8038 4454 c-10 -12 -18 -27 -18 -33 0 -5 -8 -17 -17 -26 -19 -20
-18 -16 -29 -192 -5 -102 -4 -133 5 -133 7 0 10 -4 7 -9 -6 -9 22 -71 37 -82
18 -13 35 -60 41 -113 4 -33 21 -81 42 -123 53 -102 70 -135 83 -163 7 -14 17
-34 24 -45 28 -45 41 -71 43 -83 1 -8 14 -31 28 -53 15 -22 33 -67 42 -102 8
-34 24 -81 35 -104 10 -24 19 -48 19 -54 0 -15 99 -173 111 -177 4 -2 6 -9 3
-16 -3 -7 1 -18 9 -24 13 -11 61 -105 148 -287 18 -38 40 -77 48 -85 7 -8 20
-28 28 -45 7 -16 22 -43 33 -60 10 -16 19 -40 19 -52 1 -12 8 -28 16 -37 8 -8
15 -19 15 -24 0 -6 11 -33 25 -61 14 -27 24 -53 23 -58 -4 -15 13 -73 22 -73
10 0 26 -43 51 -139 10 -41 23 -79 28 -85 5 -6 15 -38 22 -71 8 -40 24 -74 46
-102 19 -23 33 -47 32 -55 -2 -7 3 -40 11 -73 7 -33 14 -68 15 -78 1 -10 14
-30 28 -43 l27 -25 0 908 c0 806 -2 911 -16 931 -8 12 -13 26 -10 31 3 4 -2
15 -12 24 -17 15 -21 17 -42 17 -5 0 -10 14 -10 31 0 30 -64 149 -80 149 -4 0
-11 11 -14 25 -3 13 -16 30 -27 36 -15 8 -19 8 -15 0 8 -13 -4 -14 -23 -2 -7
5 -10 14 -7 20 7 11 -79 58 -96 53 -4 -1 -10 10 -14 26 -12 56 -17 65 -54 102
-22 22 -44 57 -51 81 -7 22 -21 46 -31 53 -10 6 -18 16 -18 22 0 7 -8 14 -19
17 -10 2 -27 23 -37 46 -10 23 -25 41 -34 41 -17 0 -68 81 -93 150 -17 45 -59
82 -83 73 -12 -4 -54 47 -54 66 0 6 -5 11 -10 11 -6 0 -15 10 -21 23 -20 44
-76 72 -148 73 -58 2 -68 -1 -83 -22z"/>
<path d="M8050 20 l-55 -18 195 0 195 0 -55 18 c-74 25 -206 25 -280 0z"/>
</g>
</svg>
